# xmcd
#
# Track frame offsets: 
#        150
#        11800
#        24154
#        37324
#        54902
#        70969
#        88220
#        100734
#        115846
#        128277
#        136827
#        148631
#        173214
#
# Disc length: 4653 seconds
#
# Revision: 0
# Processed by: cddbd v1.5.2PL0 Copyright (c) Steve Scherf et al.
# Submitted via: ExactAudioCopy v1.0b4
#
DISCID=aa122b0d
DTITLE=Richard Bargel - Babe! (LP)
DYEAR=1988
DGENRE=Blues
TTITLE0=Mean Old Frisco
TTITLE1=It Takes Too Long
TTITLE2=Highway 51
TTITLE3=Jitterbug Swing
TTITLE4=Can't Be Satisfied
TTITLE5=One Way Ticket
TTITLE6=Mellow Down Easy
TTITLE7=Greyhound Bus
TTITLE8=Hate To See You Go
TTITLE9=Babe!
TTITLE10=Don't You Mind
TTITLE11=Time For Mr. Blues
TTITLE12=Babe! (LP)
EXTD=
EXTT0=
EXTT1=
EXTT2=
EXTT3=
EXTT4=
EXTT5=
EXTT6=
EXTT7=
EXTT8=
EXTT9=
EXTT10=
EXTT11=
EXTT12=
PLAYORDER=
